<svg width="200" height="70" viewBox="0 0 200 70" fill="none" xmlns="http://www.w3.org/2000/svg">
<path d="M68.1517 35C68.1517 53.5086 53.2242 68.5 34.8259 68.5C16.4275 68.5 1.5 53.5086 1.5 35C1.5 16.4914 16.4275 1.5 34.8259 1.5C53.2242 1.5 68.1517 16.4914 68.1517 35Z" fill="#F0F0F0" stroke="black" stroke-width="3"/>
<path d="M14.7383 33C14.7383 33 14.5823 33 14.2703 33C13.9823 33.024 13.6343 32.988 13.2263 32.892C12.8423 32.796 12.4823 32.604 12.1463 32.316C11.8343 32.004 11.6423 31.536 11.5703 30.912C11.5223 30.408 11.4623 29.736 11.3903 28.896C11.3423 28.056 11.2823 27.168 11.2103 26.232C11.1383 25.272 11.0783 24.372 11.0303 23.532C10.9823 22.692 10.9343 22.008 10.8863 21.48C10.8623 20.928 10.8503 20.652 10.8503 20.652C10.8503 20.652 10.8383 20.544 10.8143 20.328C10.8143 20.112 10.8623 19.86 10.9583 19.572C11.0783 19.26 11.3063 18.984 11.6423 18.744C11.9783 18.504 12.5063 18.372 13.2263 18.348C14.1863 18.3 14.8943 18.36 15.3503 18.528C15.8063 18.696 16.1063 18.876 16.2503 19.068C16.4183 19.26 16.5023 19.356 16.5023 19.356C16.5023 19.356 16.6823 19.26 17.0423 19.068C17.4263 18.876 17.9423 18.696 18.5903 18.528C19.2383 18.336 19.9583 18.24 20.7503 18.24C21.6623 18.24 22.4063 18.336 22.9823 18.528C23.5823 18.72 24.0263 18.912 24.3143 19.104C24.6023 19.296 24.7463 19.392 24.7463 19.392C25.4423 18.96 26.1503 18.708 26.8703 18.636C27.6143 18.564 28.4543 18.528 29.3903 18.528C29.3903 18.528 29.6303 18.564 30.1103 18.636C30.5903 18.684 31.1903 18.828 31.9103 19.068C32.6303 19.308 33.3503 19.704 34.0703 20.256C34.8143 20.784 35.4383 21.528 35.9423 22.488C36.4463 23.424 36.7103 24.636 36.7343 26.124C36.7823 27.996 36.7343 29.412 36.5903 30.372C36.4463 31.332 36.2423 31.992 35.9783 32.352C35.7143 32.712 35.3903 32.916 35.0063 32.964C34.6223 32.988 34.2023 33 33.7463 33C32.8343 33 32.0543 32.808 31.4063 32.424C30.7823 32.016 30.5423 31.404 30.6863 30.588C30.7343 30.276 30.7703 29.772 30.7943 29.076C30.8423 28.38 30.8423 27.624 30.7943 26.808C30.7463 25.968 30.6383 25.176 30.4703 24.432C30.3023 23.664 30.0503 23.04 29.7143 22.56C29.3783 22.056 28.9343 21.816 28.3823 21.84C27.9743 21.84 27.6503 22.008 27.4103 22.344C27.1943 22.656 27.0383 22.968 26.9423 23.28C26.8463 23.592 26.7983 23.748 26.7983 23.748L27.2663 30.588C27.2663 30.588 27.2663 30.708 27.2663 30.948C27.2903 31.188 27.2423 31.476 27.1223 31.812C27.0023 32.124 26.7383 32.4 26.3303 32.64C25.9223 32.88 25.2863 33 24.4223 33C23.5583 33 22.8983 32.892 22.4423 32.676C22.0103 32.46 21.7103 32.208 21.5423 31.92C21.3743 31.632 21.2783 31.38 21.2543 31.164C21.2303 30.948 21.2183 30.828 21.2183 30.804C21.2183 30.78 21.2303 30.54 21.2543 30.084C21.2783 29.604 21.2903 29.004 21.2903 28.284C21.3143 27.564 21.2903 26.808 21.2183 26.016C21.1463 25.2 21.0143 24.444 20.8223 23.748C20.6543 23.028 20.3903 22.476 20.0303 22.092C19.6943 21.684 19.2383 21.516 18.6623 21.588C18.1103 21.66 17.7143 21.84 17.4743 22.128C17.2343 22.392 17.0783 22.644 17.0063 22.884C16.9583 23.124 16.9343 23.244 16.9343 23.244L17.5103 30.84C17.5103 30.84 17.5103 30.948 17.5103 31.164C17.5343 31.38 17.4743 31.632 17.3303 31.92C17.2103 32.208 16.9463 32.46 16.5383 32.676C16.1543 32.892 15.5543 33 14.7383 33ZM41.6502 17.844C41.6502 17.844 41.4942 17.844 41.1822 17.844C40.8702 17.82 40.4982 17.748 40.0662 17.628C39.6582 17.484 39.2862 17.232 38.9502 16.872C38.6142 16.512 38.4342 15.972 38.4102 15.252C38.3862 14.532 38.4942 14.004 38.7342 13.668C38.9742 13.308 39.2742 13.068 39.6342 12.948C39.9942 12.804 40.3422 12.732 40.6782 12.732C41.0142 12.708 41.2542 12.684 41.3982 12.66C41.5422 12.636 41.7822 12.66 42.1182 12.732C42.4542 12.78 42.8022 12.912 43.1622 13.128C43.5222 13.32 43.8222 13.62 44.0622 14.028C44.3022 14.412 44.3982 14.928 44.3502 15.576C44.3022 16.2 44.1342 16.68 43.8462 17.016C43.5822 17.328 43.2702 17.544 42.9102 17.664C42.5742 17.76 42.2742 17.82 42.0102 17.844C41.7702 17.844 41.6502 17.844 41.6502 17.844ZM40.3902 30.768L39.5262 22.56C39.5262 22.56 39.4662 22.44 39.3462 22.2C39.2502 21.936 39.1782 21.756 39.1302 21.66C39.1062 21.588 39.0582 21.444 38.9862 21.228C38.9382 20.988 38.9982 20.736 39.1662 20.472C39.3582 20.208 39.7662 20.016 40.3902 19.896C41.0382 19.776 41.7102 19.74 42.4062 19.788C43.1022 19.836 43.7142 20.052 44.2422 20.436C44.7942 20.796 45.1302 21.432 45.2502 22.344C45.3462 23.016 45.4422 23.82 45.5382 24.756C45.6342 25.668 45.7182 26.568 45.7902 27.456C45.8862 28.32 45.9582 29.052 46.0062 29.652C46.0782 30.228 46.1142 30.516 46.1142 30.516C46.1142 30.516 46.1262 30.648 46.1502 30.912C46.1742 31.152 46.1382 31.44 46.0422 31.776C45.9462 32.088 45.7062 32.376 45.3222 32.64C44.9622 32.88 44.3742 33 43.5582 33C42.7422 33 42.1182 32.892 41.6862 32.676C41.2542 32.436 40.9422 32.172 40.7502 31.884C40.5822 31.596 40.4742 31.344 40.4262 31.128C40.4022 30.888 40.3902 30.768 40.3902 30.768Z" fill="black"/>
<path d="M54.9135 37C54.9135 37 55.0695 37 55.3815 37C55.6695 36.976 56.0175 37.012 56.4255 37.108C56.8095 37.204 57.1695 37.396 57.5055 37.684C57.8175 37.996 58.0095 38.464 58.0815 39.088C58.1295 39.592 58.1895 40.264 58.2615 41.104C58.3095 41.944 58.3695 42.832 58.4415 43.768C58.5135 44.728 58.5735 45.628 58.6215 46.468C58.6695 47.308 58.7175 47.992 58.7655 48.52C58.7895 49.072 58.8015 49.348 58.8015 49.348C58.8015 49.348 58.8135 49.456 58.8375 49.672C58.8375 49.888 58.7895 50.14 58.6935 50.428C58.5735 50.74 58.3455 51.016 58.0095 51.256C57.6735 51.496 57.1455 51.628 56.4255 51.652C55.4655 51.7 54.7575 51.64 54.3015 51.472C53.8455 51.304 53.5455 51.124 53.4015 50.932C53.2335 50.74 53.1495 50.644 53.1495 50.644C53.1495 50.644 52.9695 50.74 52.6095 50.932C52.2255 51.124 51.7095 51.304 51.0615 51.472C50.4135 51.664 49.6935 51.76 48.9015 51.76C47.9895 51.76 47.2455 51.664 46.6695 51.472C46.0695 51.28 45.6255 51.088 45.3375 50.896C45.0495 50.704 44.9055 50.608 44.9055 50.608C44.2095 51.04 43.5015 51.292 42.7815 51.364C42.0375 51.436 41.1975 51.472 40.2615 51.472C40.2615 51.472 40.0215 51.436 39.5415 51.364C39.0615 51.316 38.4615 51.172 37.7415 50.932C37.0215 50.692 36.3015 50.296 35.5815 49.744C34.8375 49.216 34.2135 48.472 33.7095 47.512C33.2055 46.576 32.9415 45.364 32.9175 43.876C32.8695 42.004 32.9175 40.588 33.0615 39.628C33.2055 38.668 33.4095 38.008 33.6735 37.648C33.9375 37.288 34.2615 37.084 34.6455 37.036C35.0295 37.012 35.4495 37 35.9055 37C36.8175 37 37.5975 37.192 38.2455 37.576C38.8695 37.984 39.1095 38.596 38.9655 39.412C38.9175 39.724 38.8815 40.228 38.8575 40.924C38.8095 41.62 38.8095 42.376 38.8575 43.192C38.9055 44.032 39.0135 44.824 39.1815 45.568C39.3495 46.336 39.6015 46.96 39.9375 47.44C40.2735 47.944 40.7175 48.184 41.2695 48.16C41.6775 48.16 42.0015 47.992 42.2415 47.656C42.4575 47.344 42.6135 47.032 42.7095 46.72C42.8055 46.408 42.8535 46.252 42.8535 46.252L42.3855 39.412C42.3855 39.412 42.3855 39.292 42.3855 39.052C42.3615 38.812 42.4095 38.524 42.5295 38.188C42.6495 37.876 42.9135 37.6 43.3215 37.36C43.7295 37.12 44.3655 37 45.2295 37C46.0935 37 46.7535 37.108 47.2095 37.324C47.6415 37.54 47.9415 37.792 48.1095 38.08C48.2775 38.368 48.3735 38.62 48.3975 38.836C48.4215 39.052 48.4335 39.172 48.4335 39.196C48.4335 39.22 48.4215 39.46 48.3975 39.916C48.3735 40.396 48.3615 40.996 48.3615 41.716C48.3375 42.436 48.3615 43.192 48.4335 43.984C48.5055 44.8 48.6375 45.556 48.8295 46.252C48.9975 46.972 49.2615 47.524 49.6215 47.908C49.9575 48.316 50.4135 48.484 50.9895 48.412C51.5415 48.34 51.9375 48.16 52.1775 47.872C52.4175 47.608 52.5735 47.356 52.6455 47.116C52.6935 46.876 52.7175 46.756 52.7175 46.756L52.1415 39.16C52.1415 39.16 52.1415 39.052 52.1415 38.836C52.1175 38.62 52.1775 38.368 52.3215 38.08C52.4415 37.792 52.7055 37.54 53.1135 37.324C53.4975 37.108 54.0975 37 54.9135 37ZM28.0015 52.156C28.0015 52.156 28.1575 52.156 28.4695 52.156C28.7815 52.18 29.1535 52.252 29.5855 52.372C29.9935 52.516 30.3655 52.768 30.7015 53.128C31.0375 53.488 31.2175 54.028 31.2415 54.748C31.2655 55.468 31.1575 55.996 30.9175 56.332C30.6775 56.692 30.3775 56.932 30.0175 57.052C29.6575 57.196 29.3095 57.268 28.9735 57.268C28.6375 57.292 28.3975 57.316 28.2535 57.34C28.1095 57.364 27.8695 57.34 27.5335 57.268C27.1975 57.22 26.8495 57.088 26.4895 56.872C26.1295 56.68 25.8295 56.38 25.5895 55.972C25.3495 55.588 25.2535 55.072 25.3015 54.424C25.3495 53.8 25.5175 53.32 25.8055 52.984C26.0695 52.672 26.3815 52.456 26.7415 52.336C27.0775 52.24 27.3775 52.18 27.6415 52.156C27.8815 52.156 28.0015 52.156 28.0015 52.156ZM29.2615 39.232L30.1255 47.44C30.1255 47.44 30.1855 47.56 30.3055 47.8C30.4015 48.064 30.4735 48.244 30.5215 48.34C30.5455 48.412 30.5935 48.556 30.6655 48.772C30.7135 49.012 30.6535 49.264 30.4855 49.528C30.2935 49.792 29.8855 49.984 29.2615 50.104C28.6135 50.224 27.9415 50.26 27.2455 50.212C26.5495 50.164 25.9375 49.948 25.4095 49.564C24.8575 49.204 24.5215 48.568 24.4015 47.656C24.3055 46.984 24.2095 46.18 24.1135 45.244C24.0175 44.332 23.9335 43.432 23.8615 42.544C23.7655 41.68 23.6935 40.948 23.6455 40.348C23.5735 39.772 23.5375 39.484 23.5375 39.484C23.5375 39.484 23.5255 39.352 23.5015 39.088C23.4775 38.848 23.5135 38.56 23.6095 38.224C23.7055 37.912 23.9455 37.624 24.3295 37.36C24.6895 37.12 25.2775 37 26.0935 37C26.9095 37 27.5335 37.108 27.9655 37.324C28.3975 37.564 28.7095 37.828 28.9015 38.116C29.0695 38.404 29.1775 38.656 29.2255 38.872C29.2495 39.112 29.2615 39.232 29.2615 39.232Z" fill="black"/>
<path d="M76.1518 39.456C75.7678 39.456 75.4798 39.216 75.2878 38.736C75.1198 38.232 75.0358 37.656 75.0358 37.008C75.0358 36.36 75.1198 35.796 75.2878 35.316C75.4798 34.812 75.7678 34.56 76.1518 34.56C75.7198 34.56 75.3838 34.344 75.1438 33.912C74.9278 33.48 74.8198 32.988 74.8198 32.436C74.8198 31.86 74.9278 31.356 75.1438 30.924C75.3838 30.492 75.7198 30.276 76.1518 30.276C75.8638 30.108 75.7318 29.832 75.7558 29.448C75.8038 29.04 75.9358 28.632 76.1518 28.224C76.3918 27.816 76.6678 27.504 76.9798 27.288C77.3158 27.048 77.6278 27.012 77.9158 27.18C77.9158 26.724 78.0478 26.388 78.3118 26.172C78.5998 25.932 78.9118 25.812 79.2478 25.812C79.6078 25.812 79.9198 25.932 80.1838 26.172C80.4718 26.388 80.6158 26.724 80.6158 27.18C80.6158 26.58 80.7238 26.184 80.9398 25.992C81.1798 25.8 81.4198 25.8 81.6598 25.992C81.8998 26.184 82.0198 26.58 82.0198 27.18C82.3798 26.94 82.6918 26.88 82.9558 27C83.2438 27.096 83.4358 27.264 83.5318 27.504C83.9158 27.168 84.3958 26.892 84.9718 26.676C85.5718 26.46 86.1238 26.352 86.6278 26.352C87.1318 26.352 87.4558 26.532 87.5998 26.892C87.6958 26.58 87.9358 26.388 88.3198 26.316C88.7278 26.244 89.1838 26.256 89.6878 26.352C90.1918 26.448 90.6838 26.604 91.1638 26.82C91.6438 27.036 92.0158 27.288 92.2798 27.576C92.5678 27.864 92.6638 28.164 92.5678 28.476C93.0478 28.236 93.4438 28.152 93.7558 28.224C94.0918 28.152 94.3918 28.26 94.6558 28.548C94.4878 28.236 94.4638 27.96 94.5838 27.72C94.7038 27.48 94.9078 27.36 95.1958 27.36C95.4838 27.36 95.7838 27.528 96.0958 27.864C95.9758 27.528 96.0238 27.216 96.2398 26.928C96.4798 26.64 96.7918 26.424 97.1758 26.28C97.5838 26.136 97.9678 26.1 98.3278 26.172C98.6878 26.244 98.9278 26.46 99.0478 26.82C99.1678 26.508 99.4558 26.34 99.9118 26.316C100.368 26.268 100.86 26.34 101.388 26.532C101.94 26.724 102.396 26.976 102.756 27.288C103.116 27.576 103.236 27.876 103.116 28.188C103.524 28.02 103.92 28.08 104.304 28.368C104.688 28.656 105 29.064 105.24 29.592C105.48 30.096 105.588 30.588 105.564 31.068C105.54 31.548 105.324 31.884 104.916 32.076C105.324 32.052 105.66 32.22 105.924 32.58C106.188 32.916 106.368 33.348 106.464 33.876C106.56 34.38 106.572 34.896 106.5 35.424C106.428 35.928 106.272 36.36 106.032 36.72C105.792 37.08 105.468 37.26 105.06 37.26C105.756 37.26 106.212 37.428 106.428 37.764C106.668 38.1 106.668 38.436 106.428 38.772C106.212 39.108 105.756 39.276 105.06 39.276C105.444 39.276 105.732 39.42 105.924 39.708C106.116 39.972 106.212 40.284 106.212 40.644C106.212 41.004 106.116 41.328 105.924 41.616C105.732 41.88 105.444 42.012 105.06 42.012C105.588 42.18 105.888 42.468 105.96 42.876C106.032 43.284 105.924 43.632 105.636 43.92C105.348 44.208 104.94 44.268 104.412 44.1C104.412 44.58 104.232 44.94 103.872 45.18C103.512 45.42 103.092 45.54 102.612 45.54C102.132 45.54 101.712 45.42 101.352 45.18C100.992 44.94 100.812 44.58 100.812 44.1C100.788 44.58 100.584 44.892 100.2 45.036C99.8398 45.204 99.4678 45.192 99.0838 45C98.7238 44.832 98.5558 44.508 98.5798 44.028C98.1958 44.028 97.9078 43.836 97.7158 43.452C97.5478 43.044 97.4638 42.588 97.4638 42.084C97.4638 41.58 97.5478 41.136 97.7158 40.752C97.9078 40.344 98.1958 40.14 98.5798 40.14C98.2198 40.14 97.9438 39.9 97.7518 39.42C97.5598 38.916 97.4518 38.328 97.4278 37.656C97.4038 36.96 97.4638 36.324 97.6078 35.748C97.7518 35.148 97.9798 34.776 98.2918 34.632C98.0038 34.656 97.7278 34.536 97.4638 34.272C97.2238 33.984 97.0438 33.66 96.9238 33.3C96.6358 33.636 96.2878 33.936 95.8798 34.2C95.4718 34.464 95.0998 34.62 94.7638 34.668C95.0758 34.908 95.1598 35.22 95.0158 35.604C94.8718 35.964 94.5118 36.144 93.9358 36.144C94.2958 36.144 94.5598 36.336 94.7278 36.72C94.8958 37.104 94.9798 37.56 94.9798 38.088C94.9798 38.592 94.8958 39.036 94.7278 39.42C94.5598 39.804 94.2958 39.996 93.9358 39.996C94.3198 39.996 94.5958 40.188 94.7638 40.572C94.9558 40.932 95.0518 41.352 95.0518 41.832C95.0518 42.288 94.9558 42.696 94.7638 43.056C94.5958 43.416 94.3198 43.596 93.9358 43.596C94.0078 44.052 93.9238 44.412 93.6838 44.676C93.4438 44.94 93.1318 45.108 92.7478 45.18C92.3878 45.252 92.0398 45.192 91.7038 45C91.3918 44.832 91.1998 44.532 91.1278 44.1C91.1278 44.604 90.9478 44.988 90.5878 45.252C90.2518 45.516 89.8558 45.648 89.3998 45.648C88.9438 45.648 88.5358 45.516 88.1758 45.252C87.8398 44.988 87.6718 44.604 87.6718 44.1C86.8798 44.364 86.4478 44.388 86.3758 44.172C86.3038 43.956 86.6638 43.716 87.4558 43.452C86.9518 43.452 86.6158 43.32 86.4478 43.056C86.2798 42.792 86.2798 42.528 86.4478 42.264C86.6158 42 86.9518 41.868 87.4558 41.868C87.1918 41.868 86.9758 41.688 86.8078 41.328C86.6638 40.968 86.5678 40.512 86.5198 39.96C86.4718 39.408 86.4718 38.868 86.5198 38.34C86.5678 37.788 86.6638 37.332 86.8078 36.972C86.9758 36.612 87.1918 36.432 87.4558 36.432C87.0718 36.432 86.7958 36.324 86.6278 36.108C86.4838 35.868 86.4478 35.628 86.5198 35.388C86.6158 35.124 86.8198 34.956 87.1318 34.884C86.8678 34.86 86.6038 34.68 86.3398 34.344C86.0758 33.984 85.8838 33.6 85.7638 33.192C85.4758 33.528 85.1038 33.816 84.6478 34.056C84.1918 34.272 83.7718 34.332 83.3878 34.236C83.5798 34.548 83.7118 34.98 83.7838 35.532C83.8558 36.06 83.8678 36.6 83.8198 37.152C83.7718 37.704 83.6518 38.184 83.4598 38.592C83.2918 38.976 83.0638 39.156 82.7758 39.132C83.2078 39.132 83.4838 39.312 83.6038 39.672C83.7478 40.032 83.7478 40.392 83.6038 40.752C83.4838 41.112 83.2078 41.292 82.7758 41.292C83.1358 41.412 83.3638 41.64 83.4598 41.976C83.5558 42.288 83.5558 42.636 83.4598 43.02C83.3638 43.38 83.1838 43.68 82.9198 43.92C82.6558 44.136 82.3438 44.196 81.9838 44.1C81.9838 44.604 81.8398 44.976 81.5518 45.216C81.2638 45.456 80.9278 45.576 80.5438 45.576C80.1598 45.576 79.8238 45.456 79.5358 45.216C79.2478 44.976 79.1038 44.604 79.1038 44.1C79.1038 44.508 78.9598 44.796 78.6718 44.964C78.3838 45.108 78.0478 45.048 77.6638 44.784C77.2798 44.496 76.9318 43.932 76.6198 43.092C76.3318 42.228 76.1758 41.016 76.1518 39.456ZM110.117 21.204C109.613 21.084 109.265 20.868 109.073 20.556C108.881 20.244 108.821 19.944 108.893 19.656C108.989 19.344 109.193 19.104 109.505 18.936C109.817 18.768 110.237 18.756 110.765 18.9C110.765 18.54 110.933 18.264 111.269 18.072C111.605 17.856 112.025 17.712 112.529 17.64C113.033 17.568 113.537 17.568 114.041 17.64C114.569 17.712 115.001 17.856 115.337 18.072C115.673 18.264 115.841 18.54 115.841 18.9C116.345 18.828 116.741 18.936 117.029 19.224C117.317 19.488 117.497 19.836 117.569 20.268C117.641 20.676 117.569 21.06 117.353 21.42C117.161 21.78 116.825 21.996 116.345 22.068C116.465 22.356 116.381 22.644 116.093 22.932C115.829 23.196 115.469 23.424 115.013 23.616C114.581 23.784 114.161 23.868 113.753 23.868C113.369 23.844 113.129 23.688 113.033 23.4C113.033 23.784 112.889 24.06 112.601 24.228C112.313 24.396 111.977 24.42 111.593 24.3C111.209 24.156 110.873 23.844 110.585 23.364C110.297 22.86 110.141 22.14 110.117 21.204ZM109.937 44.028C109.553 44.028 109.253 43.848 109.037 43.488C108.821 43.128 108.665 42.684 108.569 42.156C108.497 41.628 108.497 41.1 108.569 40.572C108.665 40.044 108.821 39.612 109.037 39.276C109.253 38.916 109.553 38.736 109.937 38.736C109.457 38.736 109.097 38.544 108.857 38.16C108.617 37.752 108.497 37.296 108.497 36.792C108.497 36.288 108.617 35.844 108.857 35.46C109.097 35.052 109.457 34.848 109.937 34.848C109.529 34.848 109.205 34.668 108.965 34.308C108.725 33.948 108.557 33.504 108.461 32.976C108.389 32.448 108.389 31.92 108.461 31.392C108.557 30.864 108.725 30.432 108.965 30.096C109.205 29.736 109.529 29.556 109.937 29.556C109.505 29.556 109.181 29.436 108.965 29.196C108.773 28.932 108.665 28.644 108.641 28.332C108.641 27.996 108.749 27.708 108.965 27.468C109.181 27.228 109.505 27.108 109.937 27.108C109.937 26.676 110.081 26.364 110.369 26.172C110.681 25.956 111.029 25.86 111.413 25.884C111.821 25.884 112.169 25.992 112.457 26.208C112.745 26.424 112.889 26.748 112.889 27.18C112.889 26.82 113.021 26.556 113.285 26.388C113.549 26.22 113.861 26.136 114.221 26.136C114.581 26.136 114.893 26.22 115.157 26.388C115.445 26.556 115.589 26.82 115.589 27.18C115.949 26.892 116.261 26.808 116.525 26.928C116.813 27.048 116.969 27.252 116.993 27.54C117.041 27.828 116.885 28.116 116.525 28.404C116.957 28.404 117.269 28.608 117.461 29.016C117.677 29.424 117.785 29.892 117.785 30.42C117.785 30.948 117.677 31.416 117.461 31.824C117.269 32.208 116.957 32.4 116.525 32.4C116.909 32.4 117.197 32.604 117.389 33.012C117.581 33.42 117.677 33.888 117.677 34.416C117.677 34.944 117.581 35.412 117.389 35.82C117.197 36.228 116.909 36.432 116.525 36.432C116.813 36.432 117.041 36.624 117.209 37.008C117.401 37.368 117.521 37.836 117.569 38.412C117.641 38.964 117.641 39.516 117.569 40.068C117.521 40.62 117.401 41.088 117.209 41.472C117.041 41.832 116.813 42.012 116.525 42.012C117.053 42.108 117.377 42.348 117.497 42.732C117.617 43.092 117.557 43.44 117.317 43.776C117.077 44.088 116.693 44.196 116.165 44.1C116.165 44.7 116.045 45.096 115.805 45.288C115.565 45.504 115.325 45.504 115.085 45.288C114.845 45.096 114.725 44.7 114.725 44.1C114.725 44.604 114.485 44.988 114.005 45.252C113.549 45.516 112.997 45.636 112.349 45.612C111.725 45.612 111.173 45.48 110.693 45.216C110.213 44.952 109.961 44.556 109.937 44.028ZM128.253 39.456C127.869 39.456 127.581 39.216 127.389 38.736C127.221 38.232 127.137 37.656 127.137 37.008C127.137 36.36 127.221 35.796 127.389 35.316C127.581 34.812 127.869 34.56 128.253 34.56C127.821 34.56 127.485 34.344 127.245 33.912C127.029 33.48 126.921 32.988 126.921 32.436C126.921 31.86 127.029 31.356 127.245 30.924C127.485 30.492 127.821 30.276 128.253 30.276C127.965 30.108 127.833 29.832 127.857 29.448C127.905 29.04 128.037 28.632 128.253 28.224C128.493 27.816 128.769 27.504 129.081 27.288C129.417 27.048 129.729 27.012 130.017 27.18C130.017 26.724 130.149 26.388 130.413 26.172C130.701 25.932 131.013 25.812 131.349 25.812C131.709 25.812 132.021 25.932 132.285 26.172C132.573 26.388 132.717 26.724 132.717 27.18C132.717 26.58 132.825 26.184 133.041 25.992C133.281 25.8 133.521 25.8 133.761 25.992C134.001 26.184 134.121 26.58 134.121 27.18C134.481 26.94 134.793 26.88 135.057 27C135.345 27.096 135.537 27.264 135.633 27.504C136.017 27.168 136.497 26.892 137.073 26.676C137.673 26.46 138.225 26.352 138.729 26.352C139.233 26.352 139.557 26.532 139.701 26.892C139.797 26.58 140.037 26.388 140.421 26.316C140.829 26.244 141.285 26.256 141.789 26.352C142.293 26.448 142.785 26.604 143.265 26.82C143.745 27.036 144.117 27.288 144.381 27.576C144.669 27.864 144.765 28.164 144.669 28.476C145.149 28.236 145.545 28.152 145.857 28.224C146.193 28.152 146.493 28.26 146.757 28.548C146.589 28.236 146.565 27.96 146.685 27.72C146.805 27.48 147.009 27.36 147.297 27.36C147.585 27.36 147.885 27.528 148.197 27.864C148.077 27.528 148.125 27.216 148.341 26.928C148.581 26.64 148.893 26.424 149.277 26.28C149.685 26.136 150.069 26.1 150.429 26.172C150.789 26.244 151.029 26.46 151.149 26.82C151.269 26.508 151.557 26.34 152.013 26.316C152.469 26.268 152.961 26.34 153.489 26.532C154.041 26.724 154.497 26.976 154.857 27.288C155.217 27.576 155.337 27.876 155.217 28.188C155.625 28.02 156.021 28.08 156.405 28.368C156.789 28.656 157.101 29.064 157.341 29.592C157.581 30.096 157.689 30.588 157.665 31.068C157.641 31.548 157.425 31.884 157.017 32.076C157.425 32.052 157.761 32.22 158.025 32.58C158.289 32.916 158.469 33.348 158.565 33.876C158.661 34.38 158.673 34.896 158.601 35.424C158.529 35.928 158.373 36.36 158.133 36.72C157.893 37.08 157.569 37.26 157.161 37.26C157.857 37.26 158.313 37.428 158.529 37.764C158.769 38.1 158.769 38.436 158.529 38.772C158.313 39.108 157.857 39.276 157.161 39.276C157.545 39.276 157.833 39.42 158.025 39.708C158.217 39.972 158.313 40.284 158.313 40.644C158.313 41.004 158.217 41.328 158.025 41.616C157.833 41.88 157.545 42.012 157.161 42.012C157.689 42.18 157.989 42.468 158.061 42.876C158.133 43.284 158.025 43.632 157.737 43.92C157.449 44.208 157.041 44.268 156.513 44.1C156.513 44.58 156.333 44.94 155.973 45.18C155.613 45.42 155.193 45.54 154.713 45.54C154.233 45.54 153.813 45.42 153.453 45.18C153.093 44.94 152.913 44.58 152.913 44.1C152.889 44.58 152.685 44.892 152.301 45.036C151.941 45.204 151.569 45.192 151.185 45C150.825 44.832 150.657 44.508 150.681 44.028C150.297 44.028 150.009 43.836 149.817 43.452C149.649 43.044 149.565 42.588 149.565 42.084C149.565 41.58 149.649 41.136 149.817 40.752C150.009 40.344 150.297 40.14 150.681 40.14C150.321 40.14 150.045 39.9 149.853 39.42C149.661 38.916 149.553 38.328 149.529 37.656C149.505 36.96 149.565 36.324 149.709 35.748C149.853 35.148 150.081 34.776 150.393 34.632C150.105 34.656 149.829 34.536 149.565 34.272C149.325 33.984 149.145 33.66 149.025 33.3C148.737 33.636 148.389 33.936 147.981 34.2C147.573 34.464 147.201 34.62 146.865 34.668C147.177 34.908 147.261 35.22 147.117 35.604C146.973 35.964 146.613 36.144 146.037 36.144C146.397 36.144 146.661 36.336 146.829 36.72C146.997 37.104 147.081 37.56 147.081 38.088C147.081 38.592 146.997 39.036 146.829 39.42C146.661 39.804 146.397 39.996 146.037 39.996C146.421 39.996 146.697 40.188 146.865 40.572C147.057 40.932 147.153 41.352 147.153 41.832C147.153 42.288 147.057 42.696 146.865 43.056C146.697 43.416 146.421 43.596 146.037 43.596C146.109 44.052 146.025 44.412 145.785 44.676C145.545 44.94 145.233 45.108 144.849 45.18C144.489 45.252 144.141 45.192 143.805 45C143.493 44.832 143.301 44.532 143.229 44.1C143.229 44.604 143.049 44.988 142.689 45.252C142.353 45.516 141.957 45.648 141.501 45.648C141.045 45.648 140.637 45.516 140.277 45.252C139.941 44.988 139.773 44.604 139.773 44.1C138.981 44.364 138.549 44.388 138.477 44.172C138.405 43.956 138.765 43.716 139.557 43.452C139.053 43.452 138.717 43.32 138.549 43.056C138.381 42.792 138.381 42.528 138.549 42.264C138.717 42 139.053 41.868 139.557 41.868C139.293 41.868 139.077 41.688 138.909 41.328C138.765 40.968 138.669 40.512 138.621 39.96C138.573 39.408 138.573 38.868 138.621 38.34C138.669 37.788 138.765 37.332 138.909 36.972C139.077 36.612 139.293 36.432 139.557 36.432C139.173 36.432 138.897 36.324 138.729 36.108C138.585 35.868 138.549 35.628 138.621 35.388C138.717 35.124 138.921 34.956 139.233 34.884C138.969 34.86 138.705 34.68 138.441 34.344C138.177 33.984 137.985 33.6 137.865 33.192C137.577 33.528 137.205 33.816 136.749 34.056C136.293 34.272 135.873 34.332 135.489 34.236C135.681 34.548 135.813 34.98 135.885 35.532C135.957 36.06 135.969 36.6 135.921 37.152C135.873 37.704 135.753 38.184 135.561 38.592C135.393 38.976 135.165 39.156 134.877 39.132C135.309 39.132 135.585 39.312 135.705 39.672C135.849 40.032 135.849 40.392 135.705 40.752C135.585 41.112 135.309 41.292 134.877 41.292C135.237 41.412 135.465 41.64 135.561 41.976C135.657 42.288 135.657 42.636 135.561 43.02C135.465 43.38 135.285 43.68 135.021 43.92C134.757 44.136 134.445 44.196 134.085 44.1C134.085 44.604 133.941 44.976 133.653 45.216C133.365 45.456 133.029 45.576 132.645 45.576C132.261 45.576 131.925 45.456 131.637 45.216C131.349 44.976 131.205 44.604 131.205 44.1C131.205 44.508 131.061 44.796 130.773 44.964C130.485 45.108 130.149 45.048 129.765 44.784C129.381 44.496 129.033 43.932 128.721 43.092C128.433 42.228 128.277 41.016 128.253 39.456ZM162.219 21.204C161.715 21.084 161.367 20.868 161.175 20.556C160.983 20.244 160.923 19.944 160.995 19.656C161.091 19.344 161.295 19.104 161.607 18.936C161.919 18.768 162.339 18.756 162.867 18.9C162.867 18.54 163.035 18.264 163.371 18.072C163.707 17.856 164.127 17.712 164.631 17.64C165.135 17.568 165.639 17.568 166.143 17.64C166.671 17.712 167.103 17.856 167.439 18.072C167.775 18.264 167.943 18.54 167.943 18.9C168.447 18.828 168.843 18.936 169.131 19.224C169.419 19.488 169.599 19.836 169.671 20.268C169.743 20.676 169.671 21.06 169.455 21.42C169.263 21.78 168.927 21.996 168.447 22.068C168.567 22.356 168.483 22.644 168.195 22.932C167.931 23.196 167.571 23.424 167.115 23.616C166.683 23.784 166.263 23.868 165.855 23.868C165.471 23.844 165.231 23.688 165.135 23.4C165.135 23.784 164.991 24.06 164.703 24.228C164.415 24.396 164.079 24.42 163.695 24.3C163.311 24.156 162.975 23.844 162.687 23.364C162.399 22.86 162.243 22.14 162.219 21.204ZM162.039 44.028C161.655 44.028 161.355 43.848 161.139 43.488C160.923 43.128 160.767 42.684 160.671 42.156C160.599 41.628 160.599 41.1 160.671 40.572C160.767 40.044 160.923 39.612 161.139 39.276C161.355 38.916 161.655 38.736 162.039 38.736C161.559 38.736 161.199 38.544 160.959 38.16C160.719 37.752 160.599 37.296 160.599 36.792C160.599 36.288 160.719 35.844 160.959 35.46C161.199 35.052 161.559 34.848 162.039 34.848C161.631 34.848 161.307 34.668 161.067 34.308C160.827 33.948 160.659 33.504 160.563 32.976C160.491 32.448 160.491 31.92 160.563 31.392C160.659 30.864 160.827 30.432 161.067 30.096C161.307 29.736 161.631 29.556 162.039 29.556C161.607 29.556 161.283 29.436 161.067 29.196C160.875 28.932 160.767 28.644 160.743 28.332C160.743 27.996 160.851 27.708 161.067 27.468C161.283 27.228 161.607 27.108 162.039 27.108C162.039 26.676 162.183 26.364 162.471 26.172C162.783 25.956 163.131 25.86 163.515 25.884C163.923 25.884 164.271 25.992 164.559 26.208C164.847 26.424 164.991 26.748 164.991 27.18C164.991 26.82 165.123 26.556 165.387 26.388C165.651 26.22 165.963 26.136 166.323 26.136C166.683 26.136 166.995 26.22 167.259 26.388C167.547 26.556 167.691 26.82 167.691 27.18C168.051 26.892 168.363 26.808 168.627 26.928C168.915 27.048 169.071 27.252 169.095 27.54C169.143 27.828 168.987 28.116 168.627 28.404C169.059 28.404 169.371 28.608 169.563 29.016C169.779 29.424 169.887 29.892 169.887 30.42C169.887 30.948 169.779 31.416 169.563 31.824C169.371 32.208 169.059 32.4 168.627 32.4C169.011 32.4 169.299 32.604 169.491 33.012C169.683 33.42 169.779 33.888 169.779 34.416C169.779 34.944 169.683 35.412 169.491 35.82C169.299 36.228 169.011 36.432 168.627 36.432C168.915 36.432 169.143 36.624 169.311 37.008C169.503 37.368 169.623 37.836 169.671 38.412C169.743 38.964 169.743 39.516 169.671 40.068C169.623 40.62 169.503 41.088 169.311 41.472C169.143 41.832 168.915 42.012 168.627 42.012C169.155 42.108 169.479 42.348 169.599 42.732C169.719 43.092 169.659 43.44 169.419 43.776C169.179 44.088 168.795 44.196 168.267 44.1C168.267 44.7 168.147 45.096 167.907 45.288C167.667 45.504 167.427 45.504 167.187 45.288C166.947 45.096 166.827 44.7 166.827 44.1C166.827 44.604 166.587 44.988 166.107 45.252C165.651 45.516 165.099 45.636 164.451 45.612C163.827 45.612 163.275 45.48 162.795 45.216C162.315 44.952 162.063 44.556 162.039 44.028Z" fill="black"/>
</svg>
